<svg preserveAspectRatio="none" width="100%" height="100%" overflow="visible" style="display: block;" viewBox="0 0 104.076 97.8088" fill="none" xmlns="http://www.w3.org/2000/svg">
<g id="2025-finam-bonus">
<path id="Union" d="M82.9512 24.3564C82.934 24.3856 79.6624 29.9217 74.6904 33.7578C66.9141 39.7574 60.268 39.7434 54.749 44.4404C49.2301 49.1374 47.0096 54.1263 46.4873 56.4053L40.0781 51.4199C40.6004 49.1409 42.8208 44.1521 48.3398 39.4551C53.8588 34.7583 60.8663 35.2141 68.2803 28.7725C75.6944 22.3306 76.542 19.3711 76.542 19.3711L82.9512 24.3564ZM78.3955 6.97754C78.3845 7.02205 75.5274 18.5307 65.292 26.6338C57.5913 32.7302 50.8696 32.6194 45.3506 37.3164C39.8316 42.0134 37.6111 47.0023 37.0889 49.2812L30.6797 44.2959C31.202 42.0169 33.4224 37.0281 38.9414 32.3311C44.4603 27.6343 51.4678 28.0901 58.8818 21.6484C69.7016 12.2477 71.9863 1.99219 71.9863 1.99219L78.3955 6.97754ZM67.1396 4.98535C67.1254 5.03069 64.9748 11.8473 56.3154 19.3711C48.9013 25.8129 41.893 25.3568 36.374 30.0537C30.855 34.7507 28.6346 39.7396 28.1123 42.0186L21.7031 37.0332C22.2254 34.7542 24.4459 29.7653 29.9648 25.0684C35.4838 20.3717 42.4913 20.8274 49.9053 14.3857C58.5872 6.84244 60.7272 0.0104303 60.7305 0L67.1396 4.98535Z" fill="url(#paint0_linear_0_155)"/>
<g id="bonus">
<path id="Vector" d="M31.6606 75.3796V65.4374H27.1363V82.0107H31.6606L38.4836 72.1056V82.0107H42.9896V65.4374H38.4699L31.6606 75.3796ZM17.5417 65.4328H14.8483V63.8674H10.3379V65.4467H7.64442C2.79439 65.4328 0 68.5452 0 73.9665C0 78.9492 2.79439 82.0016 8.0482 82.0016H10.3424V83.6131H14.8529V82.0016H17.1471C19.8085 82.0016 21.8321 81.2164 23.2086 79.7618C24.5851 78.3072 25.1954 76.4371 25.1954 73.9665C25.1861 68.5452 22.3918 65.4328 17.5417 65.4328ZM10.3379 78.6952H9.25956C6.16234 78.6952 4.61143 76.848 4.61143 73.6156C4.61143 70.5956 6.13022 68.7623 8.9246 68.7623H10.3379V78.6952ZM15.9267 78.6952H14.8483V68.7761H16.2661C19.0606 68.7761 20.5748 70.6786 20.5748 73.6294C20.5748 76.848 19.0239 78.6952 15.9267 78.6952ZM57.2 72.1056H50.3724V65.4374H45.8848V82.0107H50.3907V75.3796H57.2184V82.0107H61.7243V65.4374H57.2184L57.2 72.1056ZM99.928 65.4467C98.1844 65.4467 97.106 66.3702 96.5692 68.0188L93.605 77.0559L90.595 68.0234C90.0582 66.3656 88.9844 65.4513 87.2362 65.4513H83.1066V82.0016H87.64V70.3323L91.4668 82.0016H95.7433L99.5701 70.3323V82.0016H104.076V65.4559L99.928 65.4467ZM77.9491 66.3379C77.1094 65.7607 75.8293 65.4143 74.0765 65.4143H65.0968V68.7623H72.6541C75.1778 68.7623 76.1275 69.6257 76.1275 71.69V72.1102H69.9468C67.9647 72.1102 66.4825 72.5026 65.5098 73.5186C65.0562 73.985 64.7005 74.5386 64.464 75.1463C64.2276 75.7541 64.1151 76.4034 64.1333 77.0559C64.1333 78.7829 64.7894 80.1174 65.8998 80.9302C66.8726 81.6414 68.2843 81.9969 70.135 81.9969H80.2985V72.7613C80.2985 69.6073 79.5322 67.4185 77.9491 66.3379ZM76.1138 78.7091H70.2038C69.0979 78.7091 68.1849 78.298 68.1849 77.0835C68.1849 75.7629 68.9924 75.3981 70.2038 75.3981H76.1688L76.1138 78.7091Z" fill="var(--fill-0, white)"/>
<g id="Vector_2">
<path d="M69.1964 97.7128V90.6936H73.5731V91.6053H70.2554V93.5246H71.8252C72.3461 93.5246 72.7882 93.6091 73.1515 93.7782C73.5171 93.9473 73.7959 94.1861 73.9878 94.4945C74.182 94.803 74.2791 95.1663 74.2791 95.5844C74.2791 96.0026 74.182 96.3716 73.9878 96.6915C73.7959 97.0113 73.5171 97.2615 73.1515 97.442C72.7882 97.6225 72.3461 97.7128 71.8252 97.7128H69.1964ZM70.2554 96.8217H71.8252C72.1268 96.8217 72.3815 96.7623 72.5895 96.6435C72.7997 96.5247 72.9585 96.3704 73.0659 96.1808C73.1755 95.9911 73.2304 95.7878 73.2304 95.5707C73.2304 95.2554 73.1093 94.9846 72.8671 94.7584C72.6249 94.5299 72.2776 94.4157 71.8252 94.4157H70.2554V96.8217Z" fill="url(#paint1_linear_0_155)"/>
<path d="M61.9696 97.7128H60.8454L63.3713 90.6936H64.5949L67.1208 97.7128H65.9967L64.0123 91.9686H63.9574L61.9696 97.7128ZM62.1581 94.9641H65.8048V95.8552H62.1581V94.9641Z" fill="url(#paint2_linear_0_155)"/>
<path d="M52.847 97.7128V96.7943L53.0526 96.7874C53.3314 96.7806 53.5507 96.6857 53.7107 96.503C53.8729 96.3202 53.9906 96.0254 54.0637 95.6187C54.1391 95.212 54.1893 94.6693 54.2145 93.9907L54.3344 90.6936H58.7728V97.7128H57.7275V91.5916H55.3318L55.2221 94.2718C55.1924 95.0235 55.117 95.6553 54.9959 96.1671C54.8748 96.6766 54.6692 97.0616 54.379 97.3221C54.0911 97.5826 53.681 97.7128 53.1486 97.7128H52.847Z" fill="url(#paint3_linear_0_155)"/>
<path d="M44.8485 97.7128V96.7943L45.0542 96.7874C45.3329 96.7806 45.5523 96.6857 45.7122 96.503C45.8744 96.3202 45.9921 96.0254 46.0652 95.6187C46.1406 95.212 46.1909 94.6693 46.216 93.9907L46.336 90.6936H50.7744V97.7128H49.7291V91.5916H47.3333L47.2237 94.2718C47.194 95.0235 47.1186 95.6553 46.9975 96.1671C46.8764 96.6766 46.6707 97.0616 46.3806 97.3221C46.0927 97.5826 45.6825 97.7128 45.1501 97.7128H44.8485Z" fill="url(#paint4_linear_0_155)"/>
<path d="M42.9977 94.2032C42.9977 94.9527 42.8606 95.597 42.5864 96.1362C42.3122 96.6732 41.9364 97.0867 41.4588 97.3769C40.9836 97.6648 40.4432 97.8088 39.8377 97.8088C39.2299 97.8088 38.6872 97.6648 38.2097 97.3769C37.7344 97.0867 37.3597 96.672 37.0855 96.1328C36.8114 95.5936 36.6743 94.9504 36.6743 94.2032C36.6743 93.4538 36.8114 92.8106 37.0855 92.2736C37.3597 91.7344 37.7344 91.3208 38.2097 91.0329C38.6872 90.7427 39.2299 90.5977 39.8377 90.5977C40.4432 90.5977 40.9836 90.7427 41.4588 91.0329C41.9364 91.3208 42.3122 91.7344 42.5864 92.2736C42.8606 92.8106 42.9977 93.4538 42.9977 94.2032ZM41.9489 94.2032C41.9489 93.632 41.8564 93.151 41.6713 92.7603C41.4885 92.3673 41.2372 92.0703 40.9173 91.8692C40.5997 91.6658 40.2398 91.5642 39.8377 91.5642C39.4333 91.5642 39.0723 91.6658 38.7547 91.8692C38.4371 92.0703 38.1857 92.3673 38.0006 92.7603C37.8178 93.151 37.7265 93.632 37.7265 94.2032C37.7265 94.7744 37.8178 95.2565 38.0006 95.6495C38.1857 96.0403 38.4371 96.3373 38.7547 96.5407C39.0723 96.7417 39.4333 96.8423 39.8377 96.8423C40.2398 96.8423 40.5997 96.7417 40.9173 96.5407C41.2372 96.3373 41.4885 96.0403 41.6713 95.6495C41.8564 95.2565 41.9489 94.7744 41.9489 94.2032Z" fill="url(#paint5_linear_0_155)"/>
<path d="M33.9142 97.7128L31.5562 94.5665H30.809V97.7128H29.75V90.6936H30.809V93.6583H31.1552L33.808 90.6936H35.1001L32.2931 93.8365L35.2063 97.7128H33.9142Z" fill="url(#paint6_linear_0_155)"/>
</g>
</g>
</g>
<defs>
<linearGradient id="paint0_linear_0_155" x1="71.2751" y1="1.91809e-06" x2="24.3661" y2="1.90754e-06" gradientUnits="userSpaceOnUse">
<stop stop-color="#FEDA3B"/>
<stop offset="0.47" stop-color="#EF5541"/>
<stop offset="0.815" stop-color="#821EE0"/>
<stop offset="0.98" stop-color="#7F2A8A"/>
</linearGradient>
<linearGradient id="paint1_linear_0_155" x1="29.1872" y1="84.4422" x2="75.284" y2="84.1607" gradientUnits="userSpaceOnUse">
<stop stop-color="#FFE479"/>
<stop offset="1" stop-color="#ED6B51"/>
</linearGradient>
<linearGradient id="paint2_linear_0_155" x1="29.1872" y1="84.4422" x2="75.284" y2="84.1607" gradientUnits="userSpaceOnUse">
<stop stop-color="#FFE479"/>
<stop offset="1" stop-color="#ED6B51"/>
</linearGradient>
<linearGradient id="paint3_linear_0_155" x1="29.1872" y1="84.4422" x2="75.284" y2="84.1607" gradientUnits="userSpaceOnUse">
<stop stop-color="#FFE479"/>
<stop offset="1" stop-color="#ED6B51"/>
</linearGradient>
<linearGradient id="paint4_linear_0_155" x1="29.1872" y1="84.4422" x2="75.284" y2="84.1607" gradientUnits="userSpaceOnUse">
<stop stop-color="#FFE479"/>
<stop offset="1" stop-color="#ED6B51"/>
</linearGradient>
<linearGradient id="paint5_linear_0_155" x1="29.1872" y1="84.4422" x2="75.284" y2="84.1607" gradientUnits="userSpaceOnUse">
<stop stop-color="#FFE479"/>
<stop offset="1" stop-color="#ED6B51"/>
</linearGradient>
<linearGradient id="paint6_linear_0_155" x1="29.1872" y1="84.4422" x2="75.284" y2="84.1607" gradientUnits="userSpaceOnUse">
<stop stop-color="#FFE479"/>
<stop offset="1" stop-color="#ED6B51"/>
</linearGradient>
</defs>
</svg>
