<svg preserveAspectRatio="none" width="100%" height="100%" overflow="visible" style="display: block;" viewBox="0 0 131.105 32.6188" fill="none" xmlns="http://www.w3.org/2000/svg">
<g id="Group">
<path id="Vector" d="M34.3591 0.971108H28.1677V31.5815H34.3591V0.971108Z" fill="var(--fill-0, #757575)"/>
<path id="Vector_2" d="M71.8359 0.971191H65.6445V31.5816H71.8359V0.971191Z" fill="var(--fill-0, #757575)"/>
<path id="Vector_3" d="M95.1204 20.1727L83.2539 0.971191H77.0625V31.6617H83.2539V12.4602L95.1204 31.6617H101.376V0.971191H95.1204V20.1727Z" fill="var(--fill-0, #757575)"/>
<path id="Vector_4" d="M12.7051 19.2889L6.70735 0.971108H0L10.1255 31.6616H15.3492L25.4749 0.971108H18.7676L12.7051 19.2889Z" fill="var(--fill-0, #757575)"/>
<path id="Vector_5" d="M61.584 0.971191H53.8447L45.9765 13.9062V0.971191H39.7852V31.6617H45.9765V18.0839L54.2316 31.6617H62.4223L51.7808 15.6737L61.584 0.971191Z" fill="var(--fill-0, #757575)"/>
<path id="Vector_6" d="M130.977 14.6221H118.529V20.6476H123.818C123.624 23.9418 121.754 25.9502 118.271 25.9502C114.789 25.9502 112.08 21.6922 112.08 16.4699C112.08 11.2477 114.402 6.98966 118.271 6.98966C121.174 6.98966 122.979 8.83752 123.882 11.6495L129.816 8.59656C127.945 3.45477 124.011 0 118.4 0C110.597 0 105.695 7.31104 105.695 16.3094C105.695 25.3075 110.145 32.6188 118.4 32.6188C125.365 32.6188 129.558 27.5571 130.719 20.6476C130.977 19.2819 131.105 17.8356 131.105 16.3091C131.041 15.7468 131.041 15.1844 130.977 14.6221Z" fill="var(--fill-0, #757575)"/>
</g>
</svg>
