<svg preserveAspectRatio="none" width="100%" height="100%" overflow="visible" style="display: block;" viewBox="0 0 112.137 19.0189" fill="none" xmlns="http://www.w3.org/2000/svg">
<path id="Vector" d="M31.5846 19.0189H25.7167V0H31.5846V19.0189ZM46.2246 0C49.5094 0 51.7863 0.664566 53.0994 1.95253C54.1947 3.04547 54.7637 4.84272 54.7637 7.30227V19.0186H48.8962V6.71747C48.8962 4.84272 48.0203 4.06148 45.8746 4.06148H40.7955V19.0189H34.9274V0H46.2246ZM69.8928 0C72.2564 0 74.008 0.351729 75.1906 1.01516C77.3799 2.26537 78.4745 4.68517 78.4745 8.31855V19.0189H64.8128C62.2291 19.0189 60.3469 18.6671 59.077 17.964C57.5006 17.0663 56.7121 15.5442 56.7121 13.3952C56.7121 9.52902 59.1643 7.45954 64.5514 7.45954H72.607V7.10695C72.607 4.80355 71.5126 4.06148 68.1414 4.06148H58.2447V0H69.8928ZM103.16 0C106.618 0 109.072 0.664566 110.43 1.95253C111.568 3.00743 112.137 4.68517 112.137 6.91193V19.0189H106.269V7.73263C106.269 4.92136 105.438 4.06148 102.767 4.06148H99.6585V19.0189H93.7897V4.06148H87.4839V19.0189H81.6167V0H103.16ZM22.1021 0V4.06148H8.88882C6.74306 4.06148 5.86756 4.84272 5.86756 6.71719V8.07556H22.1021V12.1214H5.86756V19.0186H0V7.30227C0 4.84272 0.569065 3.04547 1.66401 1.95253C2.97712 0.664566 5.25434 0 8.53855 0H22.1021ZM64.8566 11.5213C63.412 11.5213 62.667 12.1064 62.667 13.2788C62.667 14.4893 63.5428 14.9574 65.8204 14.9574H72.607V11.5213H64.8566Z" fill="#FFFFFF"/>
</svg>
