<svg preserveAspectRatio="none" width="100%" height="100%" overflow="visible" style="display: block;" viewBox="0 0 51.1309 46.7793" fill="none" xmlns="http://www.w3.org/2000/svg">
<path id="Union" d="M51.1309 20.1982C51.1309 20.1982 48.3956 24.8061 44.2334 27.9961C37.741 32.972 32.1928 32.9608 27.585 36.8564C22.9772 40.752 21.1236 44.8891 20.6875 46.7793L15.3359 42.6445C15.772 40.7543 17.6257 36.6172 22.2334 32.7217C26.8412 28.8261 32.6918 29.2039 38.8818 23.8613C45.0216 18.562 45.7676 16.1041 45.7793 16.0645L51.1309 20.1982ZM47.3223 5.78027C47.3125 5.81952 44.9265 15.3632 36.3818 22.083C29.9526 27.1392 24.3412 27.0477 19.7334 30.9434C15.1256 34.839 13.272 38.9761 12.8359 40.8662L7.48438 36.7314C7.92043 34.8413 9.77415 30.7042 14.3818 26.8086C18.9896 22.913 24.8402 23.2908 31.0303 17.9482C40.0458 10.1668 41.9632 1.67904 41.9707 1.64551L47.3223 5.78027ZM37.9355 4.13477C37.9315 4.14761 36.1433 9.81237 28.8975 16.0664C22.7074 21.4091 16.8568 21.0311 12.249 24.9268C7.64131 28.8223 5.78766 32.9594 5.35156 34.8496L0 30.7148C0.436103 28.8246 2.28982 24.6875 6.89746 20.792C11.5053 16.8964 17.3558 17.2743 23.5459 11.9316C30.7921 5.67735 32.5801 0.0123807 32.584 0L37.9355 4.13477Z" fill="var(--fill-0, #757575)"/>
</svg>
