<svg preserveAspectRatio="none" width="100%" height="100%" overflow="visible" style="display: block;" viewBox="0 0 96.0004 18.2136" fill="none" xmlns="http://www.w3.org/2000/svg">
<path id="Vector" d="M29.2039 10.619V1.4482H25.0307V16.7356H29.2039L35.4976 7.59897V16.7356H39.6539V1.4482H35.4849L29.2039 10.619ZM16.1806 1.44397H13.6962V0H9.5357V1.45677H7.05126C2.57756 1.44397 0 4.31486 0 9.31552C0 13.9115 2.57756 16.7271 7.42371 16.7271H9.53994V18.2136H13.7004V16.7271H15.8166C18.2715 16.7271 20.138 16.0029 21.4077 14.6611C22.6775 13.3194 23.2404 11.5944 23.2404 9.31552C23.2319 4.31486 20.6544 1.44397 16.1806 1.44397ZM9.5357 13.6773H8.54108C5.68418 13.6773 4.25361 11.9734 4.25361 8.99183C4.25361 6.20612 5.65455 4.51507 8.23211 4.51507H9.5357V13.6773ZM14.6909 13.6773H13.6962V4.52787H15.004C17.5816 4.52787 18.9783 6.28273 18.9783 9.00453C18.9783 11.9734 17.5477 13.6773 14.6909 13.6773ZM52.7617 7.59897H46.4638V1.4482H42.3244V16.7356H46.4807V10.619H52.7786V16.7356H56.9349V1.4482H52.7786L52.7617 7.59897ZM92.1743 1.45677C90.5659 1.45677 89.5713 2.30859 89.0761 3.82927L86.3419 12.1652L83.5655 3.8335C83.0703 2.30435 82.0798 1.461 80.4673 1.461H76.6581V16.7271H80.8398V5.96327L84.3696 16.7271H88.3143L91.8441 5.96327V16.7271H96.0004V1.46523L92.1743 1.45677ZM71.9008 2.27886C71.1263 1.74639 69.9454 1.42693 68.3287 1.42693H60.0458V4.51507H67.0166C69.3445 4.51507 70.2206 5.31154 70.2206 7.2156V7.60321H64.5194C62.6911 7.60321 61.3239 7.9652 60.4267 8.90231C60.0082 9.33256 59.6802 9.8432 59.4621 10.4037C59.2439 10.9644 59.1402 11.5633 59.157 12.1652C59.157 13.7582 59.7622 14.9892 60.7865 15.7389C61.6837 16.3948 62.9859 16.7228 64.693 16.7228H74.0679V8.20382C74.0679 5.29451 73.361 3.27554 71.9008 2.27886ZM70.2079 13.6901H64.7565C63.7364 13.6901 62.8942 13.3109 62.8942 12.1907C62.8942 10.9725 63.6391 10.636 64.7565 10.636H70.2587L70.2079 13.6901Z" fill="var(--fill-0, #757575)"/>
</svg>
