<svg preserveAspectRatio="none" width="100%" height="100%" overflow="visible" style="display: block;" viewBox="0 0 62.2832 57.3613" fill="none" xmlns="http://www.w3.org/2000/svg">
<path id="Union" d="M62.2832 24.7695C62.2639 24.8023 58.9368 30.43 53.8818 34.3301C45.974 40.4311 39.2159 40.4171 33.6035 45.1934C27.991 49.97 25.7333 55.0437 25.2021 57.3613L18.6836 52.291C19.2149 49.9732 21.4727 44.9004 27.085 40.124C32.6975 35.3474 39.8244 35.8117 47.3643 29.2607C54.8589 22.749 55.7552 19.736 55.7656 19.7002L62.2832 24.7695ZM57.6494 7.09766C57.6494 7.09766 54.7524 18.8305 44.3232 27.0869C36.4921 33.2866 29.6574 33.1747 24.0449 37.9512C18.4327 42.7276 16.1748 47.8004 15.6436 50.1182L9.125 45.0488C9.65612 42.7312 11.9138 37.6575 17.5264 32.8809C23.1389 28.1045 30.266 28.5685 37.8057 22.0176C48.8086 12.4575 51.1318 2.02832 51.1318 2.02832L57.6494 7.09766ZM46.207 5.06934C46.207 5.06934 44.0341 12.0222 35.1982 19.6992C27.6585 26.2502 20.5324 25.787 14.9199 30.5635C9.30762 35.3399 7.0498 40.4127 6.51855 42.7305L0 37.6611C0.531116 35.3435 2.78882 30.2698 8.40137 25.4932C14.0139 20.7168 21.1409 21.1808 28.6807 14.6299C37.4959 6.97063 39.6784 0.031996 39.6885 0L46.207 5.06934Z" fill="url(#paint0_linear_0_50)"/>
<defs>
<linearGradient id="paint0_linear_0_50" x1="50.4098" y1="1.95061e-06" x2="2.70796" y2="1.93988e-06" gradientUnits="userSpaceOnUse">
<stop stop-color="#FEDA3B"/>
<stop offset="0.47" stop-color="#EF5541"/>
<stop offset="0.815" stop-color="#821EE0"/>
<stop offset="0.98" stop-color="#7F2A8A"/>
</linearGradient>
</defs>
</svg>
