<svg preserveAspectRatio="none" width="100%" height="100%" overflow="visible" style="display: block;" viewBox="0 0 105.84 20.0804" fill="none" xmlns="http://www.w3.org/2000/svg">
<path id="Vector" d="M32.1972 11.7074V1.59663H27.5962V18.4509H32.1972L39.1359 8.37783V18.4509H43.7182V1.59663H39.1219L32.1972 11.7074ZM17.839 1.59196H15.1V0H10.5131V1.60608H7.77398C2.84175 1.59197 0 4.75712 0 10.2703C0 15.3374 2.84175 18.4415 8.18461 18.4415H10.5177V20.0804H15.1047V18.4415H17.4377C20.1442 18.4415 22.2021 17.6431 23.6019 16.1638C25.0018 14.6846 25.6225 12.7827 25.6225 10.2703C25.613 4.75712 22.7713 1.59196 17.839 1.59196ZM10.5131 15.0791H9.4165C6.26678 15.0791 4.68959 13.2006 4.68959 9.91345C4.68959 6.84221 6.23412 4.97784 9.07587 4.97784H10.5131V15.0791ZM16.1966 15.0791H15.1V4.99196H16.5418C19.3836 4.99196 20.9235 6.92667 20.9235 9.92745C20.9235 13.2006 19.3463 15.0791 16.1966 15.0791ZM58.1695 8.37783H51.2261V1.59663H46.6625V18.4509H51.2448V11.7074H58.1882V18.4509H62.7705V1.59663H58.1882L58.1695 8.37783ZM101.622 1.60608C99.8485 1.60608 98.7519 2.54521 98.206 4.22175L95.1916 13.412L92.1305 4.22642C91.5846 2.54054 90.4926 1.61075 88.7148 1.61075H84.5152V18.4415H89.1254V6.57447L93.0171 18.4415H97.366L101.258 6.57447V18.4415H105.84V1.61541L101.622 1.60608ZM79.2703 2.51243C78.4164 1.92539 77.1145 1.57318 75.332 1.57318H66.2002V4.97784H73.8855C76.452 4.97784 77.4178 5.85595 77.4178 7.95516V8.3825H71.1323C69.1166 8.3825 67.6093 8.78159 66.6201 9.81475C66.1588 10.2891 65.7971 10.8521 65.5567 11.4701C65.3162 12.0882 65.2018 12.7485 65.2203 13.412C65.2203 15.1684 65.8875 16.5255 67.0168 17.352C68.006 18.0752 69.4417 18.4368 71.3237 18.4368H81.6595V9.04467C81.6595 5.83717 80.8802 3.61126 79.2703 2.51243ZM77.4038 15.0932H71.3937C70.2691 15.0932 69.3405 14.6752 69.3405 13.4401C69.3405 12.0971 70.1618 11.7261 71.3937 11.7261H77.4598L77.4038 15.0932Z" fill="var(--fill-0, white)"/>
</svg>
