<svg width="25" height="23" viewBox="0 0 25 23" fill="none" xmlns="http://www.w3.org/2000/svg">
<path d="M12.5 2C18.8513 2 24 6.02944 24 11C24 15.9706 18.8513 20 12.5 20C6.14873 20 1 15.9706 1 11C1 6.02944 6.14873 2 12.5 2ZM7.91504 12.1055C7.40966 12.1056 7 12.5296 7 13.0527C7.00005 13.5758 7.40969 13.9999 7.91504 14H15.0342C15.5395 13.9998 15.9492 13.5758 15.9492 13.0527C15.9492 12.5296 15.5395 12.1056 15.0342 12.1055H7.91504ZM7.91504 8C7.40969 8.00012 7.00005 8.42417 7 8.94727C7 9.47041 7.40966 9.89441 7.91504 9.89453H18.085C18.5903 9.89441 19 9.47041 19 8.94727C18.9999 8.42417 18.5903 8.00012 18.085 8H7.91504Z" fill="#5E5E5E"/>
<path d="M10.0975 18.1211C9.75268 18.1211 9.42202 18.2581 9.17823 18.5019L5.5 21.6211C4.81753 22.3036 4 22.0298 4 21.0647V17L10.0975 18.1211Z" fill="#5E5E5E"/>
</svg>
