<svg viewBox="0 0 22 21" fill="none" xmlns="http://www.w3.org/2000/svg">
<path fill-rule="evenodd" clip-rule="evenodd" d="M0 3.03333C0 1.35807 1.35807 0 3.03333 0H18.2C19.8753 0 21.2333 1.35807 21.2333 3.03333V13.8667C21.2333 15.5419 19.8753 16.9 18.2 16.9H10.4308C10.086 16.9 9.75535 17.037 9.51156 17.2808L6.1827 20.6096C5.50023 21.2921 4.33333 20.8087 4.33333 19.8436V16.9H3.03333C1.35807 16.9 0 15.5419 0 13.8667V3.03333ZM4.22516 5.95831C4.22516 5.41983 4.66168 4.98331 5.20016 4.98331H16.0335C16.572 4.98331 17.0085 5.41983 17.0085 5.95831C17.0085 6.49678 16.572 6.93331 16.0335 6.93331H5.20016C4.66168 6.93331 4.22516 6.49678 4.22516 5.95831ZM4.22516 10.1833C4.22516 9.64486 4.66168 9.20833 5.20016 9.20833H12.7835C13.322 9.20833 13.7585 9.64486 13.7585 10.1833C13.7585 10.7218 13.322 11.1583 12.7835 11.1583H5.20016C4.66168 11.1583 4.22516 10.7218 4.22516 10.1833Z" fill="#5E5E5E"/>
</svg>
