<svg viewBox="0 0 22 18" fill="none" xmlns="http://www.w3.org/2000/svg">
<path d="M14.9592 0.00109791C15.7429 0.000942934 16.5323 -0.00329107 17.3157 0.00598073C17.408 0.0183007 17.6354 -0.000148439 17.6917 0.0782464C17.8654 0.321711 17.801 0.875529 17.7952 1.16614C18.6309 1.2013 19.7408 1.02419 20.47 1.44836C20.8117 1.64715 21.1262 2.10504 21.1653 2.47961C21.525 5.95743 19.4785 8.09986 15.8147 8.71692C14.8203 10.2308 13.6922 11.2686 11.7922 11.7618C11.7901 11.8211 11.7888 11.8803 11.7893 11.9396C11.7968 12.8189 11.8812 15.0263 13.1536 15.0861C14.5209 15.15 14.4835 15.1918 14.47 16.4825C14.8744 16.4929 15.1527 16.4306 15.5129 16.6173C16.0271 16.9996 15.8997 17.9186 15.2112 17.9738C14.6571 18.0178 14.0263 17.9925 13.4651 17.9913L10.4006 17.9933H7.44263C6.95272 17.9928 6.45251 18.0013 5.96607 17.9777C5.82302 17.9672 5.55397 17.8203 5.49244 17.7042C5.23931 17.2263 5.35064 16.5638 6.04029 16.4962C6.27374 16.4734 6.49293 16.478 6.71998 16.4747C6.73226 16.2714 6.7149 16.0517 6.72681 15.8488C6.79864 14.63 8.00218 15.4598 8.6897 14.7911C9.37497 14.1242 9.38941 12.6191 9.39478 11.7618C7.51309 11.316 6.37077 10.167 5.40162 8.71887C4.0201 8.4235 3.05418 8.17435 1.9065 7.32043C0.458324 6.24285 0.0184996 4.74607 0.000250401 3.09973C-0.0103309 2.13961 0.311928 1.37869 1.44556 1.19934C2.04686 1.11215 2.7331 1.20565 3.34595 1.16418L3.38892 1.16125C3.39874 0.859885 3.35792 0.530196 3.40943 0.240356C3.42996 0.125504 3.50613 0.0701725 3.6067 0.0108635C3.64653 0.00732296 3.69574 0.00216299 3.7356 0.00207448C4.49573 0.000326628 5.25903 0.00118629 6.01881 0.00109791L10.5901 0.000121351L14.9592 0.00109791ZM1.64478 2.27063C1.53224 2.29628 1.36797 2.34324 1.31959 2.44934C1.0738 2.99039 1.27049 4.03237 1.40455 4.56555C1.7682 6.01184 2.9292 6.8286 4.38209 7.33411C4.48665 7.36782 4.59359 7.40372 4.69849 7.43567C4.1597 6.15117 3.85929 5.04884 3.64283 3.68079C3.57111 3.2275 3.54184 2.68639 3.46705 2.26477C2.88227 2.26549 2.22337 2.25317 1.64478 2.27063ZM17.7376 2.26965C17.6742 2.72769 17.6421 3.18065 17.5725 3.64172C17.4319 4.5905 17.2028 5.52648 16.8879 6.43957C16.7847 6.74486 16.6573 7.14869 16.5169 7.43079C17.0602 7.27176 17.5946 7.06329 18.0696 6.77063C19.006 6.21584 19.6316 5.43442 19.8303 4.43469C19.9113 4.0281 20.2834 2.322 19.5725 2.28528C19.0139 2.25643 18.3034 2.26587 17.7376 2.26965Z" fill="#5E5E5E"/>
</svg>
