<svg width="22" height="23" viewBox="0 0 22 23" fill="none" xmlns="http://www.w3.org/2000/svg">
<path fill-rule="evenodd" clip-rule="evenodd" d="M9.98766 2.71606C10.5803 2.23949 11.4055 2.23915 11.9985 2.71521L18.7003 8.09514C19.22 8.51232 19.5246 9.15838 19.5246 9.84338L19.5246 17.7289C19.5246 19.2109 18.3755 20.4123 16.9579 20.4123H5.04128C3.62375 20.4123 2.47461 19.2109 2.47461 17.7289L2.47461 9.84266C2.47461 9.15829 2.77868 8.51274 3.29757 8.0955L9.98766 2.71606ZM9 13C8.44772 13 8 13.4477 8 14C8 14.4234 8 20.4123 8 20.4123H14C14 20.4123 14 14.4234 14 14C14 13.4477 13.5523 13 13 13H9Z" fill="#5E5E5E"/>
</svg>
