<svg viewBox="0 0 18 19" fill="none" xmlns="http://www.w3.org/2000/svg">
<path fill-rule="evenodd" clip-rule="evenodd" d="M7.51305 0.357658C8.10572 -0.118905 8.93084 -0.119252 9.52388 0.356814L16.2257 5.73674C16.7454 6.15392 17.05 6.79999 17.05 7.48498L17.05 15.3705C17.05 16.8525 15.9009 18.0539 14.4833 18.0539H2.56667C1.14914 18.0539 4.37101e-06 16.8525 3.71536e-06 15.3705L0 7.48426C0 6.79989 0.304072 6.15434 0.822964 5.7371L7.51305 0.357658ZM4.85833 13.1663C4.45332 13.1663 4.125 13.5096 4.125 13.933C4.125 14.3564 4.45332 14.6997 4.85833 14.6997H12.1917C12.5967 14.6997 12.925 14.3564 12.925 13.933C12.925 13.5096 12.5967 13.1663 12.1917 13.1663H4.85833Z" fill="#5E5E5E"/>
</svg>
