<svg viewBox="0 0 20 18" fill="none" xmlns="http://www.w3.org/2000/svg">
<path d="M5.77931 0.000124391C5.96884 0.000122819 6.20133 -0.00477156 6.43067 0.0469994C6.61401 0.0884199 6.79085 0.15699 6.95411 0.250124C7.15819 0.366615 7.326 0.527545 7.46583 0.655398L9.04884 2.10266L9.0713 2.12317C9.14728 2.19259 9.18959 2.2312 9.22267 2.25891C9.25239 2.28381 9.25293 2.2814 9.23927 2.27356C9.24773 2.27835 9.25713 2.28117 9.26661 2.28333C9.25101 2.27981 9.24933 2.28261 9.2881 2.2843C9.33522 2.28634 9.39932 2.28626 9.52149 2.28626H15.7002C16.2452 2.28626 16.7083 2.28562 17.0869 2.31653C17.4761 2.34833 17.8549 2.41827 18.2168 2.60266C18.7623 2.88063 19.2063 3.32377 19.4844 3.86927C19.6688 4.23111 19.7387 4.61009 19.7705 4.99915C19.8014 5.37769 19.8008 5.84087 19.8008 6.38587V13.7003C19.8008 14.2453 19.8014 14.7085 19.7705 15.087C19.7387 15.4761 19.6687 15.8551 19.4844 16.2169C19.2064 16.7626 18.7625 17.2065 18.2168 17.4845C17.8549 17.6689 17.476 17.7388 17.0869 17.7706C16.7083 17.8015 16.2452 17.8009 15.7002 17.8009H4.1006C3.55558 17.8009 3.09246 17.8015 2.71388 17.7706C2.32478 17.7388 1.94588 17.6689 1.58399 17.4845C1.03835 17.2065 0.594441 16.7626 0.316416 16.2169C0.132097 15.8551 0.0620717 15.4761 0.0302833 15.087C-0.000612458 14.7085 9.82336e-06 14.2453 9.82336e-06 13.7003V3.18665C9.49268e-06 2.94606 -0.00103685 2.75064 0.0185645 2.5763C0.170099 1.23185 1.23172 0.170163 2.57618 0.0186791C2.75055 -0.000923991 2.9459 0.000124388 3.18653 0.000124391H5.77931Z" fill="#5E5E5E"/>
</svg>
