<svg width="160" height="42" viewBox="0 0 160 42" fill="none" xmlns="http://www.w3.org/2000/svg">
<g clip-path="url(#clip0_294_5224)">
<path d="M45.3232 17.9028C45.3232 17.9028 42.8989 22.0137 39.21 24.8599C33.4555 29.2996 28.5372 29.2893 24.4531 32.7651C20.3693 36.2407 18.7264 39.9321 18.3398 41.6187L13.5967 37.9302C13.9832 36.2437 15.6259 32.5515 19.71 29.0757C23.794 25.6 28.9804 25.9383 34.4668 21.1714C39.9232 16.4305 40.5731 14.2382 40.5801 14.2144L45.3232 17.9028ZM41.9502 5.04346C41.9502 5.04346 39.8426 13.5814 32.2539 19.5894C26.5554 24.1007 21.5811 24.0188 17.4971 27.4946C13.4132 30.9703 11.7703 34.6616 11.3838 36.3481L6.64062 32.6597C7.0271 30.9732 8.66986 27.281 12.7539 23.8052C16.8379 20.3294 22.0243 20.6668 27.5107 15.8999C35.4935 8.96382 37.1971 1.39919 37.207 1.35498L41.9502 5.04346ZM33.623 3.56885C33.6066 3.62112 32.0084 8.65712 25.6123 14.2144C20.126 18.981 14.9404 18.6439 10.8564 22.1196C6.77252 25.5954 5.12963 29.2867 4.74316 30.9731L0 27.2837C0.386578 25.5971 2.02945 21.9058 6.11328 18.4302C10.1973 14.9544 15.3827 15.2916 20.8691 10.5249C27.2834 4.95185 28.8724 -0.0966624 28.8799 -0.120605L33.623 3.56885Z" fill="#757575"/>
<path d="M84.3684 15.5382V6.7661H80.4055V21.3889H84.3684L90.3447 12.6495V21.3889H94.2915V6.7661H90.3327L84.3684 15.5382ZM72.0016 6.76205H69.6424V5.38086H65.6917V6.7743H63.3325C59.0843 6.76205 56.6367 9.50814 56.6367 14.2914C56.6367 18.6876 59.0843 21.3808 63.6862 21.3808H65.6957V22.8026H69.6465V21.3808H71.656C73.9871 21.3808 75.7595 20.688 76.9652 19.4046C78.1709 18.1212 78.7055 16.4712 78.7055 14.2914C78.6974 9.50814 76.2498 6.76205 72.0016 6.76205ZM65.6917 18.4635H64.7472C62.0343 18.4635 60.6759 16.8337 60.6759 13.9818C60.6759 11.3172 62.0062 9.69964 64.4538 9.69964H65.6917V18.4635ZM70.587 18.4635H69.6424V9.71189H70.8843C73.332 9.71189 74.6583 11.3904 74.6583 13.9939C74.6583 16.8337 73.2998 18.4635 70.587 18.4635ZM106.739 12.6495H100.758V6.7661H96.8274V21.3889H100.774V15.5382H106.755V21.3889H110.701V6.7661H106.755L106.739 12.6495ZM144.164 6.7743C142.637 6.7743 141.692 7.58908 141.222 9.04366L138.626 17.0171L135.989 9.0477C135.519 7.58503 134.579 6.77835 133.047 6.77835H129.43V21.3808H133.401V11.0849L136.753 21.3808H140.499L143.851 11.0849V21.3808H147.797V6.78239L144.164 6.7743ZM124.913 7.56065C124.177 7.05133 123.056 6.74575 121.521 6.74575H113.655V9.69964H120.275C122.485 9.69964 123.317 10.4615 123.317 12.2828V12.6535H117.904C116.167 12.6535 114.869 12.9998 114.017 13.8961C113.62 14.3077 113.308 14.7961 113.101 15.3323C112.894 15.8686 112.795 16.4415 112.811 17.0171C112.811 18.5409 113.386 19.7184 114.359 20.4355C115.211 21.0629 116.447 21.3766 118.068 21.3766H126.971V13.228C126.971 10.4452 126.299 8.514 124.913 7.56065ZM123.305 18.4758H118.129C117.16 18.4758 116.36 18.1131 116.36 17.0415C116.36 15.8763 117.068 15.5545 118.129 15.5545H123.353L123.305 18.4758Z" fill="#757575"/>
<path d="M56.9323 40.7345V37.3209H57.519C57.7161 37.1638 57.9002 36.9425 58.0716 36.657C58.2429 36.3714 58.3885 35.9803 58.5084 35.4834C58.6284 34.9866 58.7112 34.3441 58.7569 33.556L58.9881 29.8468H64.5947V37.3209H65.5713V40.7259H64.0465V38.6187H58.457V40.7345H56.9323ZM59.3693 37.3209H63.0699V31.1789H60.4187L60.2816 33.556C60.2445 34.1528 60.1846 34.6868 60.1018 35.1579C60.0189 35.629 59.9147 36.0445 59.7891 36.4043C59.6634 36.7612 59.5235 37.0667 59.3693 37.3209ZM68.072 38.6187V29.8468H69.661V33.5603H73.7257V29.8468H75.319V38.6187H73.7257V34.8923H69.661V38.6187H68.072ZM78.2534 38.6187V29.8468H83.9585V31.1789H79.8424V33.5603H83.6629V34.8923H79.8424V37.2866H83.9927V38.6187H78.2534ZM86.7857 38.6187V29.8468H90.1437C90.7776 29.8468 91.3044 29.9468 91.7242 30.1467C92.1468 30.3437 92.4623 30.6135 92.6707 30.9562C92.882 31.2988 92.9877 31.6872 92.9877 32.1212C92.9877 32.4781 92.9191 32.7836 92.7821 33.0378C92.645 33.289 92.4609 33.4932 92.2296 33.6502C91.9983 33.8073 91.7399 33.9201 91.4543 33.9886V34.0743C91.7656 34.0914 92.0639 34.1871 92.3495 34.3612C92.6379 34.5326 92.8735 34.7753 93.0562 35.0894C93.2389 35.4035 93.3303 35.7832 93.3303 36.2287C93.3303 36.6827 93.2204 37.091 93.0005 37.4536C92.7807 37.8134 92.4494 38.0975 92.0068 38.306C91.5643 38.5144 91.0074 38.6187 90.3364 38.6187H86.7857ZM88.3748 37.2909H90.0837C90.6605 37.2909 91.076 37.181 91.3301 36.9611C91.5871 36.7384 91.7156 36.4528 91.7156 36.1045C91.7156 35.8446 91.6513 35.6105 91.5228 35.402C91.3944 35.1907 91.2116 35.0251 90.9746 34.9052C90.7376 34.7824 90.4549 34.721 90.1266 34.721H88.3748V37.2909ZM88.3748 33.5774H89.9467C90.2208 33.5774 90.4678 33.5275 90.6876 33.4275C90.9075 33.3247 91.0803 33.1805 91.2059 32.9949C91.3344 32.8065 91.3986 32.5838 91.3986 32.3268C91.3986 31.987 91.2787 31.7071 91.0389 31.4873C90.8019 31.2674 90.4492 31.1575 89.9809 31.1575H88.3748V33.5774ZM95.9188 38.6187V29.8468H97.5078V33.5603H101.573V29.8468H103.166V38.6187H101.573V34.8923H97.5078V38.6187H95.9188ZM106.1 29.8468H107.676V35.8261H107.758L111.882 29.8468H113.309V38.6187H111.72V32.6437H111.647L107.509 38.6187H106.1V29.8468ZM121.502 38.6187L118.615 34.7853H117.835V38.6187H116.246V29.8468H117.835V33.4532H118.234L121.352 29.8468H123.309L119.844 33.8473L123.459 38.6187H121.502Z" fill="#757575"/>
</g>
<defs>
<clipPath id="clip0_294_5224">
<rect width="160" height="41.6185" fill="white"/>
</clipPath>
</defs>
</svg>
