<svg width="154" height="40" viewBox="0 0 154 40" fill="none" xmlns="http://www.w3.org/2000/svg">
<g clip-path="url(#clip0_274_5503)">
<path d="M43.4326 17.2725C43.4326 17.2725 41.1086 21.2118 37.5732 23.9395C32.0587 28.1939 27.3464 28.1847 23.4326 31.5156C19.5187 34.8466 17.9436 38.3838 17.5732 40L13.0283 36.4648C13.3987 34.8487 14.9728 31.3105 18.8867 27.9795C22.8006 24.6487 27.7705 24.9725 33.0283 20.4043C38.2519 15.8657 38.8788 13.7645 38.8867 13.7373L43.4326 17.2725ZM40.2041 4.94922C40.2041 4.94922 38.1836 13.1311 30.9111 18.8887C25.4501 23.212 20.6834 23.1339 16.7695 26.4648C12.8556 29.7958 11.2815 33.334 10.9111 34.9502L6.36523 31.4141C6.73571 29.7978 8.31022 26.2604 12.2236 22.9297C16.1375 19.5987 21.1074 19.9218 26.3652 15.3535C34.0382 8.68683 35.6582 1.41406 35.6582 1.41406L40.2041 4.94922ZM32.2227 3.53516C32.2227 3.53516 30.7073 8.38385 24.5459 13.7373C19.288 18.3056 14.3182 17.9825 10.4043 21.3135C6.49066 24.6442 4.9164 28.1815 4.5459 29.7979L0 26.2627C0.370374 24.6465 1.94452 21.1083 5.8584 17.7773C9.77224 14.4465 14.7422 14.7703 20 10.2021C26.1536 4.85561 27.6728 0.0126723 27.6768 0L32.2227 3.53516Z" fill="url(#paint0_linear_274_5503)"/>
<path d="M80.8516 15.4228V7.01624H77.0538V21.0297H80.8516L86.5789 12.6545V21.0297H90.3612V7.01624H86.5674L80.8516 15.4228ZM69.0001 7.01236H66.7392V5.68872H62.9531V7.0241H60.6922C56.621 7.01236 54.2754 9.64403 54.2754 14.228C54.2754 18.441 56.621 21.022 61.0311 21.022H62.9569V22.3846H66.7431V21.022H68.6688C70.9028 21.022 72.6014 20.3581 73.7569 19.1282C74.9123 17.8982 75.4247 16.317 75.4247 14.228C75.4169 9.64403 73.0713 7.01236 69.0001 7.01236ZM62.9531 18.2263H62.048C59.4481 18.2263 58.1463 16.6644 58.1463 13.9313C58.1463 11.3777 59.4212 9.82755 61.7668 9.82755H62.9531V18.2263ZM67.6444 18.2263H66.7392V9.83929H67.9293C70.275 9.83929 71.5461 11.4479 71.5461 13.9429C71.5461 16.6644 70.2442 18.2263 67.6444 18.2263ZM102.29 12.6545H96.5584V7.01624H92.7915V21.0297H96.5738V15.4228H102.305V21.0297H106.087V7.01624H102.305L102.29 12.6545ZM138.156 7.0241C136.692 7.0241 135.787 7.80493 135.336 9.1989L132.848 16.8402L130.322 9.20278C129.871 7.80106 128.97 7.02798 127.502 7.02798H124.036V21.022H127.841V11.1551L131.053 21.022H134.643L137.855 11.1551V21.022H141.638V7.03186L138.156 7.0241ZM119.707 7.77768C119.002 7.28958 117.927 6.99674 116.456 6.99674H108.918V9.82755H115.262C117.38 9.82755 118.178 10.5577 118.178 12.3031V12.6584H112.989C111.326 12.6584 110.081 12.9902 109.265 13.8492C108.884 14.2436 108.586 14.7117 108.387 15.2255C108.189 15.7394 108.094 16.2885 108.109 16.8402C108.109 18.3005 108.66 19.4289 109.592 20.1161C110.409 20.7174 111.594 21.018 113.147 21.018H121.679V13.2089C121.679 10.542 121.035 8.69131 119.707 7.77768ZM118.166 18.238H113.205C112.277 18.238 111.51 17.8905 111.51 16.8635C111.51 15.7469 112.188 15.4384 113.205 15.4384H118.212L118.166 18.238Z" fill="white"/>
<path d="M54.5586 40.0277V36.7563H55.1209C55.3098 36.6058 55.4863 36.3937 55.6504 36.1201C55.8146 35.8464 55.9542 35.4715 56.0691 34.9954C56.1841 34.5193 56.2634 33.9036 56.3072 33.1483L56.5288 29.5937H61.9018V36.7563H62.8377V40.0195H61.3764V38H56.0199V40.0277H54.5586ZM56.8942 36.7563H60.4406V30.8702H57.8998L57.7684 33.1483C57.7329 33.7202 57.6754 34.2319 57.596 34.6834C57.5167 35.135 57.4168 35.5331 57.2964 35.8779C57.176 36.22 57.0419 36.5127 56.8942 36.7563ZM65.2342 38V29.5937H66.757V33.1524H70.6523V29.5937H72.1792V38H70.6523V34.429H66.757V38H65.2342ZM74.9913 38V29.5937H80.4587V30.8702H76.5142V33.1524H80.1755V34.429H76.5142V36.7235H80.4916V38H74.9913ZM83.1682 38V29.5937H86.3862C86.9937 29.5937 87.4986 29.6895 87.9009 29.881C88.3058 30.0698 88.6082 30.3284 88.808 30.6568C89.0105 30.9852 89.1117 31.3573 89.1117 31.7733C89.1117 32.1153 89.046 32.4081 88.9147 32.6516C88.7834 32.8925 88.6069 33.0881 88.3852 33.2386C88.1636 33.3891 87.9159 33.4972 87.6423 33.5629V33.645C87.9405 33.6614 88.2265 33.7531 88.5001 33.92C88.7765 34.0842 89.0023 34.3168 89.1774 34.6178C89.3525 34.9188 89.4401 35.2827 89.4401 35.7096C89.4401 36.1447 89.3347 36.536 89.124 36.8835C88.9133 37.2283 88.5959 37.5006 88.1718 37.7004C87.7476 37.9001 87.214 38 86.5709 38H83.1682ZM84.691 36.7276H86.3288C86.8815 36.7276 87.2797 36.6222 87.5232 36.4115C87.7695 36.1981 87.8926 35.9244 87.8926 35.5906C87.8926 35.3416 87.8311 35.1172 87.7079 34.9174C87.5848 34.7149 87.4097 34.5562 87.1825 34.4413C86.9554 34.3236 86.6845 34.2648 86.3698 34.2648H84.691V36.7276ZM84.691 33.1688H86.1974C86.4601 33.1688 86.6968 33.1209 86.9075 33.0252C87.1182 32.9267 87.2838 32.7885 87.4042 32.6106C87.5273 32.43 87.5889 32.2166 87.5889 31.9703C87.5889 31.6446 87.474 31.3765 87.2441 31.1658C87.017 30.9551 86.679 30.8497 86.2303 30.8497H84.691V33.1688ZM91.9207 38V29.5937H93.4436V33.1524H97.3389V29.5937H98.8658V38H97.3389V34.429H93.4436V38H91.9207ZM101.678 29.5937H103.188V35.3238H103.266L107.219 29.5937H108.586V38H107.063V32.274H106.993L103.028 38H101.678V29.5937ZM116.438 38L113.671 34.3263H112.924V38H111.401V29.5937H112.924V33.0498H113.306L116.294 29.5937H118.17L114.849 33.4274L118.313 38H116.438Z" fill="url(#paint1_linear_274_5503)"/>
</g>
<defs>
<linearGradient id="paint0_linear_274_5503" x1="35.1528" y1="1.36022e-06" x2="1.88837" y2="1.35274e-06" gradientUnits="userSpaceOnUse">
<stop stop-color="#FEDA3B"/>
<stop offset="0.47" stop-color="#EF5541"/>
<stop offset="0.815" stop-color="#821EE0"/>
<stop offset="0.98" stop-color="#7F2A8A"/>
</linearGradient>
<linearGradient id="paint1_linear_274_5503" x1="58.5769" y1="27" x2="119.275" y2="27" gradientUnits="userSpaceOnUse">
<stop stop-color="#FDB938"/>
<stop offset="1" stop-color="#ED6B51"/>
</linearGradient>
<clipPath id="clip0_274_5503">
<rect width="153.333" height="40" fill="white"/>
</clipPath>
</defs>
</svg>
