<svg width="160" height="72" viewBox="0 0 160 72" fill="none" xmlns="http://www.w3.org/2000/svg">
<g clip-path="url(#clip0_83_9495)">
<path d="M32.526 45.5096H26.6581V26.4907H32.526V45.5096ZM47.166 26.4907C50.4508 26.4907 52.7277 27.1553 54.0408 28.4433C55.1361 29.5362 55.7051 31.3334 55.7051 33.793V45.5093H49.8376V33.2082C49.8376 31.3334 48.9618 30.5522 46.816 30.5522H41.737V45.5096H35.8688V26.4907H47.166ZM70.8342 26.4907C73.1978 26.4907 74.9494 26.8425 76.132 27.5059C78.3213 28.7561 79.4159 31.1759 79.4159 34.8093V45.5096H65.7542C63.1705 45.5096 61.2883 45.1579 60.0184 44.4547C58.442 43.5571 57.6535 42.0349 57.6535 39.8859C57.6535 36.0197 60.1057 33.9503 65.4928 33.9503H73.5484V33.5977C73.5484 31.2943 72.4541 30.5522 69.0828 30.5522H59.1861V26.4907H70.8342ZM104.102 26.4907C107.56 26.4907 110.013 27.1553 111.371 28.4433C112.509 29.4982 113.078 31.1759 113.078 33.4027V45.5096H107.21V34.2233C107.21 31.4121 106.379 30.5522 103.709 30.5522H100.6V45.5096H94.7311V30.5522H88.4253V45.5096H82.5581V26.4907H104.102ZM23.0435 26.4907V30.5522H9.83022C7.68447 30.5522 6.80896 31.3334 6.80896 33.2079V34.5663H23.0435V38.6121H6.80896V45.5093H0.941406V33.793C0.941406 31.3334 1.51047 29.5362 2.60542 28.4433C3.91853 27.1553 6.19575 26.4907 9.47996 26.4907H23.0435ZM65.798 38.012C64.3534 38.012 63.6084 38.5971 63.6084 39.7695C63.6084 40.98 64.4842 41.4481 66.7618 41.4481H73.5484V38.012H65.798Z" fill="#757575"/>
<mask id="mask0_83_9495" style="mask-type:alpha" maskUnits="userSpaceOnUse" x="127" y="26" width="33" height="20">
<path d="M135.406 26.4268C138.231 28.9326 140.83 31.0667 143.35 33.0819L152.007 26.4268H159.576L149.076 34.4977C148.015 35.3132 148.006 36.7698 149.053 37.5987C152.096 40.0063 155.201 42.5141 158.647 45.5708H151.078L143.158 39.0479L134.675 45.5708H127.105L137.547 37.5419C138.592 36.7384 138.619 35.3083 137.606 34.4734L127.837 26.4268H135.406Z" fill="white"/>
</mask>
<g mask="url(#mask0_83_9495)">
<path d="M200.078 10.4165H116.004V84.9914H200.078V10.4165Z" fill="#757575"/>
</g>
</g>
<defs>
<clipPath id="clip0_83_9495">
<rect width="160" height="72" fill="white"/>
</clipPath>
</defs>
</svg>
