<svg width="160" height="72" viewBox="0 0 160 72" fill="none" xmlns="http://www.w3.org/2000/svg">
<g clip-path="url(#clip0_83_9465)">
<path d="M63.5937 12.4707H57.4023V43.0811H63.5937V12.4707Z" fill="#757575"/>
<path d="M101.07 12.4707H94.8789V43.0811H101.07V12.4707Z" fill="#757575"/>
<path d="M124.355 31.6722L112.488 12.4707H106.297V43.1612H112.488V23.9597L124.355 43.1612H130.611V12.4707H124.355V31.6722Z" fill="#757575"/>
<path d="M41.9394 30.7885L35.9417 12.4707H29.2344L39.3598 43.1612H44.5836L54.7093 12.4707H48.002L41.9394 30.7885Z" fill="#757575"/>
<path d="M90.8184 12.4707H83.0791L75.2109 25.4058V12.4707H69.0195V43.1612H75.2109V29.5834L83.4659 43.1612H91.6566L81.0152 27.1732L90.8184 12.4707Z" fill="#757575"/>
<path d="M160.211 26.1216H147.764V32.1471H153.052C152.859 35.4413 150.988 37.4497 147.506 37.4497C144.023 37.4497 141.315 33.1917 141.315 27.9695C141.315 22.7472 143.636 18.4892 147.506 18.4892C150.408 18.4892 152.214 20.337 153.117 23.149L159.05 20.0961C157.18 14.9543 153.246 11.4995 147.635 11.4995C139.831 11.4995 134.93 18.8106 134.93 27.8089C134.93 36.807 139.38 44.1183 147.635 44.1183C154.6 44.1183 158.792 39.0566 159.953 32.1471C160.211 30.7815 160.34 29.3351 160.34 27.8086C160.275 27.2463 160.275 26.6839 160.211 26.1216Z" fill="#757575"/>
<path d="M8.01825 6.11328H0.34375V65.8874H8.01849V56.5674L24.9802 35.4378L8.01825 14.2276V6.11328ZM14.2742 35.3574L8.01825 43.1507V27.5645L14.2742 35.3574Z" fill="#757575"/>
<path d="M34.3321 48.8633H35.1707L38.7179 58.6649H37.7505L36.8474 56.0942H32.591L31.688 58.6649H30.7852L34.3321 48.8633ZM36.5251 55.1301L34.7192 50.1488L32.9133 55.1301H36.5251Z" fill="#757575"/>
<path d="M40.1406 51.4384H40.9789V52.8844C41.4303 52.001 42.1397 51.2778 43.1716 51.2778C44.5904 51.2778 45.9449 52.6435 45.9449 55.054C45.9449 57.3838 44.5904 58.8301 43.1716 58.8301C42.0754 58.8301 41.4303 58.1069 40.9789 57.3033V60.919H40.1406V51.4384ZM45.1066 55.054C45.1066 53.3667 44.1393 52.242 43.043 52.242C42.0111 52.3224 40.9791 53.4471 40.9791 55.054C40.9791 56.741 42.0111 57.866 43.043 57.866C44.2036 57.866 45.1066 56.8214 45.1066 55.054Z" fill="#757575"/>
<path d="M47.3516 54.805C47.3516 52.4749 47.4807 50.2255 49.5446 49.6629L52.7692 48.6987L52.9627 49.5825L49.8025 50.5466C48.5772 50.9487 48.1903 51.752 48.1258 53.1176C48.5126 52.2339 49.2866 51.5909 50.5119 51.5909C51.9953 51.5909 53.2852 53.1978 53.2852 55.2065C53.2852 57.2152 52.0598 58.9022 50.3185 58.9022C48.5126 58.8221 47.3516 57.2953 47.3516 54.805ZM52.3821 55.1263C52.3821 53.5996 51.4791 52.3945 50.3183 52.3945C49.0929 52.3945 48.2546 53.5996 48.2546 55.1263C48.2546 56.6528 49.1577 57.8582 50.3183 57.8582C51.5436 57.8579 52.3821 56.6528 52.3821 55.1263Z" fill="#757575"/>
<path d="M54.8398 51.4263H55.6784V57.1307L59.0965 51.4263H59.9347V58.6572H59.0965V52.9531L55.6784 58.6572H54.8398V51.4263Z" fill="#757575"/>
<path d="M63.2863 52.3904H61.2227V51.4263H66.253V52.3904H64.1894V58.6572H63.2863V52.3904Z" fill="#757575"/>
<path d="M67.4844 51.4384H68.3229V52.8844C68.7743 52.001 69.4837 51.2778 70.5156 51.2778C71.9344 51.2778 73.2889 52.6435 73.2889 55.054C73.2889 57.3838 71.9344 58.8301 70.5156 58.8301C69.4191 58.8301 68.7743 58.1069 68.3229 57.3033V60.919H67.4844V51.4384ZM72.4506 55.054C72.4506 53.3667 71.4833 52.242 70.3868 52.242C69.2905 52.242 68.3231 53.3667 68.3231 55.054C68.3231 56.741 69.3551 57.866 70.3868 57.866C71.5476 57.866 72.4506 56.8214 72.4506 55.054Z" fill="#757575"/>
<path d="M74.4961 56.5746C74.4961 55.0484 75.528 54.2448 76.9468 54.2448C77.6562 54.2448 78.1722 54.4053 78.6882 54.5659V54.3249C78.6882 53.0397 78.0433 52.3966 76.9468 52.3966C76.2374 52.3966 75.7215 52.6376 75.2055 52.8785L74.9475 51.9951C75.5926 51.593 76.1729 51.3521 77.0757 51.3521C77.914 51.3521 78.559 51.593 78.9461 52.1557C79.333 52.6373 79.5264 53.3608 79.5264 54.2445V58.6634H78.6882V57.6191C78.3013 58.2619 77.6562 58.8245 76.6245 58.8245C75.528 58.8245 74.4961 58.1013 74.4961 56.5746ZM78.7525 56.0125V55.3695C78.3011 55.2089 77.7851 55.0484 77.0757 55.0484C75.9792 55.0484 75.3989 55.6107 75.3989 56.4941C75.3989 57.3779 76.0438 57.9405 76.8823 57.9405C77.8497 57.9408 78.7525 57.2176 78.7525 56.0125Z" fill="#757575"/>
<path d="M83.0268 54.5588L80.7695 51.5059H81.8014L84.7679 55.6838V51.5059H85.6062V55.6838L88.5729 51.5059H89.6048L87.3475 54.5588L89.7337 58.6564H88.7017L86.7672 55.282L85.6062 56.8889V58.6564H84.7679V56.8889L83.6073 55.282L81.6723 58.6564H80.6406L83.0268 54.5588Z" fill="#757575"/>
<path d="M90.9492 51.4263H91.7875V54.5594H95.1413V51.4263H95.9796V58.6572H95.1413V55.5238H91.7875V58.6572H90.9492V51.4263Z" fill="#757575"/>
<path d="M97.9161 51.4263H98.7544V54.1582H100.302C101.528 54.1582 102.56 54.8009 102.56 56.3274C102.56 57.7735 101.721 58.6575 100.367 58.6575H97.8516V51.4266H97.9161V51.4263ZM100.367 57.693C101.205 57.693 101.786 57.2111 101.786 56.3271C101.786 55.5235 101.27 55.0419 100.367 55.0419H98.8189V57.693H100.367ZM103.656 51.4263H104.494V58.6572H103.656V51.4263Z" fill="#757575"/>
<path d="M106.109 55.054C106.109 52.9652 107.27 51.2778 108.883 51.2778C110.624 51.2778 111.591 52.9652 111.591 55.1344C111.591 55.2148 111.591 55.3754 111.591 55.5359H107.012C107.141 57.0627 108.044 57.9464 109.076 57.9464C109.85 57.9464 110.43 57.5443 110.882 56.9021L111.398 57.4642C110.817 58.2678 110.108 58.8304 109.012 58.8304C107.399 58.8301 106.109 57.3033 106.109 55.054ZM110.688 54.6522C110.559 53.3667 109.979 52.242 108.818 52.242C107.85 52.242 107.077 53.2862 106.948 54.6522H110.688Z" fill="#757575"/>
<path d="M116.426 51.4384H117.264V52.8844C117.715 52.001 118.425 51.2778 119.457 51.2778C120.876 51.2778 122.23 52.6435 122.23 55.054C122.23 57.3838 120.876 58.8301 119.457 58.8301C118.361 58.8301 117.715 58.1069 117.264 57.3033V60.919H116.426V51.4384ZM121.392 55.054C121.392 53.3667 120.424 52.242 119.328 52.242C118.232 52.242 117.264 53.3667 117.264 55.054C117.264 56.741 118.296 57.866 119.328 57.866C120.489 57.866 121.392 56.8214 121.392 55.054Z" fill="#757575"/>
<path d="M123.531 55.054C123.531 53.0456 124.821 51.2778 126.562 51.2778C128.304 51.2778 129.594 52.9652 129.594 55.054C129.594 57.0624 128.304 58.8301 126.562 58.8301C124.757 58.8301 123.531 57.1428 123.531 55.054ZM128.691 55.054C128.691 53.5272 127.788 52.242 126.562 52.242C125.337 52.242 124.434 53.5272 124.434 55.054C124.434 56.5802 125.337 57.866 126.562 57.866C127.788 57.866 128.691 56.6609 128.691 55.054Z" fill="#757575"/>
<path d="M130.859 54.805C130.859 52.4749 130.988 50.2255 133.052 49.6629L136.277 48.6987L136.47 49.5825L133.31 50.5466C132.085 50.9487 131.698 51.752 131.634 53.1176C132.02 52.2339 132.794 51.5909 134.02 51.5909C135.503 51.5909 136.793 53.1978 136.793 55.2065C136.793 57.2152 135.568 58.9022 133.827 58.9022C132.02 58.8221 130.859 57.2953 130.859 54.805ZM135.89 55.1263C135.89 53.5996 134.987 52.3945 133.826 52.3945C132.601 52.3945 131.763 53.5996 131.763 55.1263C131.763 56.6528 132.665 57.8582 133.826 57.8582C135.052 57.8579 135.89 56.6528 135.89 55.1263Z" fill="#757575"/>
<path d="M137.977 55.054C137.977 53.0456 139.266 51.2778 141.008 51.2778C142.749 51.2778 144.039 52.9652 144.039 55.054C144.039 57.0624 142.749 58.8301 141.008 58.8301C139.266 58.8301 137.977 57.1428 137.977 55.054ZM143.136 55.054C143.136 53.5272 142.233 52.242 141.008 52.242C139.782 52.242 138.88 53.5272 138.88 55.054C138.88 56.5802 139.782 57.866 141.008 57.866C142.298 57.866 143.136 56.6609 143.136 55.054Z" fill="#757575"/>
<path d="M146.732 52.3904H144.668V51.4263H149.699V52.3904H147.635V58.6572H146.732L146.732 52.3904Z" fill="#757575"/>
<path d="M150.932 51.4263H151.77V54.1582H153.318C154.543 54.1582 155.575 54.8009 155.575 56.3274C155.575 57.7735 154.737 58.6575 153.382 58.6575H150.867V51.4266H150.932V51.4263ZM153.382 57.693C154.221 57.693 154.802 57.2111 154.802 56.3271C154.802 55.5235 154.285 55.0419 153.382 55.0419H151.835V57.693H153.382ZM156.671 51.4263H157.51V58.6572H156.671V51.4263Z" fill="#757575"/>
</g>
<defs>
<clipPath id="clip0_83_9465">
<rect width="160" height="72" fill="white"/>
</clipPath>
</defs>
</svg>
