<svg width="40" height="40" viewBox="0 0 40 40" fill="none" xmlns="http://www.w3.org/2000/svg">
<rect x="0.5" y="0.5" width="39" height="39" rx="11.5" fill="#151519"/>
<rect x="0.5" y="0.5" width="39" height="39" rx="11.5" stroke="#CD81FF"/>
<path d="M34.1152 18.2271C34.1152 18.2271 32.6055 20.7882 30.3076 22.561C26.7233 25.3263 23.6601 25.3199 21.1162 27.4849C18.5724 29.6499 17.5493 31.9491 17.3086 32.9995L14.3535 30.7017C14.5942 29.6512 15.6182 27.352 18.1621 25.187C20.706 23.0221 23.9361 23.2324 27.3535 20.2632C30.7709 17.2939 31.1611 15.9292 31.1611 15.9292L34.1152 18.2271ZM32.0176 10.2173C32.0176 10.2173 30.7045 15.5356 25.9775 19.2778C22.4281 22.0878 19.33 22.0367 16.7861 24.2017C14.2422 26.3667 13.2183 28.6659 12.9775 29.7163L10.0234 27.4185C10.2642 26.368 11.2874 24.0687 13.8311 21.9038C16.3748 19.7389 19.6052 19.9489 23.0225 16.98C28.0005 12.6548 29.0587 7.93659 29.0625 7.91943L32.0176 10.2173ZM26.8281 9.29834C26.8281 9.29834 25.8427 12.4496 21.8379 15.9292C18.4205 18.8984 15.1903 18.6881 12.6465 20.853C10.103 23.0177 9.0798 25.317 8.83887 26.3677L5.88477 24.0698C6.12572 23.0191 7.14894 20.7198 9.69238 18.5552C12.2362 16.3904 15.4665 16.6005 18.8838 13.6313C22.8766 10.1621 23.8672 7.01917 23.873 7.00049L26.8281 9.29834Z" fill="url(#paint0_linear_780_30381)"/>
<defs>
<linearGradient id="paint0_linear_780_30381" x1="28.7335" y1="7.00049" x2="7.11218" y2="7.00049" gradientUnits="userSpaceOnUse">
<stop stop-color="#FEDA3B"/>
<stop offset="0.47" stop-color="#EF5541"/>
<stop offset="0.815" stop-color="#821EE0"/>
<stop offset="0.98" stop-color="#7F2A8A"/>
</linearGradient>
</defs>
</svg>
